<?xml version="1.0" encoding="UTF-8"?>
<svg width="18px" height="18px" viewBox="0 0 18 18" version="1.1" xmlns="http://www.w3.org/2000/svg" xmlns:xlink="http://www.w3.org/1999/xlink">
    <!-- Generator: Sketch 47.1 (45422) - http://www.bohemiancoding.com/sketch -->
    <title>uEA03-pencil</title>
    <desc>Created with Sketch.</desc>
    <defs></defs>
    <g id="Page-1" stroke="none" stroke-width="1" fill="none" fill-rule="evenodd">
        <g id="uEA03-pencil" fill-rule="nonzero" fill="#000000">
            <path d="M2.243,15.433 C2.105,15.433 2,15.321 2,15.19 C2,15.17 2.007,15.157 2.007,15.138 L2.965,10.822 L2.972,10.822 C2.979,10.776 3.005,10.737 3.038,10.704 L3.03,10.704 L9.694,4.033 L13.393,7.732 L6.729,14.403 C6.696,14.429 6.657,14.449 6.611,14.462 L2.296,15.427 L2.289,15.42 C2.276,15.427 2.256,15.433 2.243,15.433 Z M6.316,12.554 L5.116,12.554 C4.985,12.554 4.88,12.442 4.88,12.311 L4.88,11.111 L3.391,11.111 L2.558,14.876 L6.317,14.036 L6.317,12.554 L6.316,12.554 Z M15.434,5.594 C15.434,5.66 15.408,5.719 15.362,5.765 L13.735,7.392 L10.036,3.699 L11.669,2.066 C11.708,2.027 11.767,2 11.833,2 C11.905,2 11.964,2.026 12.004,2.066 L15.362,5.424 C15.408,5.47 15.434,5.529 15.434,5.594 Z" id="Shape"></path>
        </g>
    </g>
</svg>