<?xml version="1.0" encoding="UTF-8"?>
<svg width="19px" height="18px" viewBox="0 0 19 18" version="1.1" xmlns="http://www.w3.org/2000/svg" xmlns:xlink="http://www.w3.org/1999/xlink">
    <!-- Generator: Sketch 47.1 (45422) - http://www.bohemiancoding.com/sketch -->
    <title>uEA05-close</title>
    <desc>Created with Sketch.</desc>
    <defs></defs>
    <g id="Page-1" stroke="none" stroke-width="1" fill="none" fill-rule="evenodd">
        <g id="uEA05-close" fill-rule="nonzero" fill="#000000">
            <path d="M18.621,14.556 C18.621,14.675 18.573,14.77 18.502,14.865 L15.486,17.881 C15.391,17.952 15.297,18 15.178,18 C15.059,18 14.964,17.952 14.87,17.881 L9.622,12.633 L4.374,17.881 C4.279,17.952 4.183,18 4.065,18 C3.946,18 3.851,17.952 3.756,17.881 L0.74,14.865 C0.669,14.77 0.621,14.675 0.621,14.556 C0.621,14.437 0.669,14.342 0.74,14.248 L5.988,9 L0.74,3.752 C0.669,3.658 0.621,3.562 0.621,3.444 C0.621,3.325 0.669,3.23 0.74,3.135 L3.756,0.119 C3.851,0.048 3.945,0 4.065,0 C4.184,0 4.279,0.048 4.373,0.119 L9.621,5.367 L14.869,0.119 C14.964,0.048 15.059,0 15.178,0 C15.297,0 15.392,0.048 15.487,0.119 L18.503,3.135 C18.574,3.23 18.622,3.325 18.622,3.444 C18.622,3.563 18.574,3.658 18.503,3.752 L13.254,9 L18.502,14.248 C18.574,14.343 18.621,14.438 18.621,14.556 Z" id="Shape"></path>
        </g>
    </g>
</svg>