<?xml version="1.0" encoding="UTF-8"?>
<svg width="19px" height="18px" viewBox="0 0 19 18" version="1.1" xmlns="http://www.w3.org/2000/svg" xmlns:xlink="http://www.w3.org/1999/xlink">
    <!-- Generator: Sketch 47.1 (45422) - http://www.bohemiancoding.com/sketch -->
    <title>uEA05-close</title>
    <desc>Created with Sketch.</desc>
    <defs></defs>
    <g id="Page-1" stroke="none" stroke-width="1" fill="none" fill-rule="evenodd">
        <g id="uEA05-close" fill-rule="nonzero" fill="#000000">
            <path d="M16,13.5126667 C16,13.5986111 15.9653333,13.6672222 15.9140556,13.7358333 L13.7358333,15.9140556 C13.6672222,15.9653333 13.5993333,16 13.5133889,16 C13.4274444,16 13.3588333,15.9653333 13.2909444,15.9140556 L9.50072222,12.1238333 L5.7105,15.9140556 C5.64188889,15.9653333 5.57255556,16 5.48733333,16 C5.40138889,16 5.33277778,15.9653333 5.26416667,15.9140556 L3.08594444,13.7358333 C3.03466667,13.6672222 3,13.5986111 3,13.5126667 C3,13.4267222 3.03466667,13.3581111 3.08594444,13.2902222 L6.87616667,9.5 L3.08594444,5.70977778 C3.03466667,5.64188889 3,5.57255556 3,5.48733333 C3,5.40138889 3.03466667,5.33277778 3.08594444,5.26416667 L5.26416667,3.08594444 C5.33277778,3.03466667 5.40066667,3 5.48733333,3 C5.57327778,3 5.64188889,3.03466667 5.70977778,3.08594444 L9.5,6.87616667 L13.2902222,3.08594444 C13.3588333,3.03466667 13.4274444,3 13.5133889,3 C13.5993333,3 13.6679444,3.03466667 13.7365556,3.08594444 L15.9147778,5.26416667 C15.9660556,5.33277778 16.0007222,5.40138889 16.0007222,5.48733333 C16.0007222,5.57327778 15.9660556,5.64188889 15.9147778,5.70977778 L12.1238333,9.5 L15.9140556,13.2902222 C15.9660556,13.3588333 16,13.4274444 16,13.5126667 Z" id="Shape"></path>
        </g>
    </g>
</svg>